<?xml version="1.0" encoding="UTF-8" standalone="no"?>
<svg
   xmlns:dc="http://purl.org/dc/elements/1.1/"
   xmlns:cc="http://creativecommons.org/ns#"
   xmlns:rdf="http://www.w3.org/1999/02/22-rdf-syntax-ns#"
   xmlns:svg="http://www.w3.org/2000/svg"
   xmlns="http://www.w3.org/2000/svg"
   xmlns:sodipodi="http://sodipodi.sourceforge.net/DTD/sodipodi-0.dtd"
   xmlns:inkscape="http://www.inkscape.org/namespaces/inkscape"
   width="216pt"
   height="208pt"
   viewBox="0 0 216 208"
   version="1.1"
   id="svg3003"
   inkscape:version="0.48.4 r9939"
   sodipodi:docname="logo.svg">
  <metadata
     id="metadata3019">
    <rdf:RDF>
      <cc:Work
         rdf:about="">
        <dc:format>image/svg+xml</dc:format>
        <dc:type
           rdf:resource="http://purl.org/dc/dcmitype/StillImage" />
      </cc:Work>
    </rdf:RDF>
  </metadata>
  <defs
     id="defs3017" />
  <sodipodi:namedview
     pagecolor="#ffffff"
     bordercolor="#666666"
     borderopacity="1"
     objecttolerance="10"
     gridtolerance="10"
     guidetolerance="10"
     inkscape:pageopacity="0"
     inkscape:pageshadow="2"
     inkscape:window-width="1168"
     inkscape:window-height="814"
     id="namedview3015"
     showgrid="false"
     inkscape:zoom="1.729692"
     inkscape:cx="119.85781"
     inkscape:cy="160.21019"
     inkscape:window-x="417"
     inkscape:window-y="138"
     inkscape:window-maximized="0"
     inkscape:current-layer="svg3003" />
  <path
     fill="#00418f"
     d=" M 87.59 0.00 L 89.29 0.00 C 90.34 1.98 91.54 3.93 92.18 6.10 C 92.65 9.71 92.34 13.37 92.39 17.00 C 92.40 53.68 92.35 90.36 92.42 127.04 C 92.49 129.32 91.70 131.48 91.10 133.65 C 85.10 133.36 83.99 126.19 80.47 122.52 C 73.28 114.85 65.22 106.37 54.24 104.96 C 46.83 103.38 39.41 105.52 31.98 105.49 C 27.76 105.73 23.54 106.95 19.32 105.95 C 14.14 104.78 7.36 107.00 3.88 101.79 C 2.82 95.51 4.55 89.20 5.84 83.08 C 7.80 73.90 11.46 65.18 15.69 56.82 C 17.87 52.44 19.85 47.86 23.10 44.13 C 27.72 39.04 31.14 32.86 36.68 28.64 C 40.91 25.55 44.17 21.34 48.58 18.49 C 54.73 14.35 61.58 11.39 68.18 8.06 C 74.46 4.89 81.58 3.73 87.59 0.00 Z"
     id="path3007" />
  <path
     fill="#526705"
     d=" M 127.07 0.75 C 130.81 1.21 134.18 2.97 137.75 4.05 C 145.96 6.62 153.87 10.16 161.24 14.61 C 167.20 17.75 172.84 21.62 177.46 26.55 C 179.86 29.28 183.79 30.64 185.12 34.25 C 186.52 36.48 183.85 38.21 182.35 39.44 C 176.81 42.29 170.91 44.30 164.99 46.19 C 157.16 49.25 149.31 52.28 141.70 55.85 C 137.46 57.35 133.55 60.10 128.99 60.46 C 126.96 60.75 125.89 58.66 124.51 57.59 C 124.54 40.75 124.51 23.90 124.51 7.05 C 124.25 4.62 125.69 2.58 127.07 0.75 Z"
     id="path3009" />
  <path
     fill="#00418f"
     d=" M 190.13 53.04 C 192.46 51.81 195.17 51.03 197.78 51.81 C 201.15 54.77 202.16 59.34 203.91 63.29 C 208.72 74.09 212.01 85.67 212.83 97.50 C 214.20 104.29 212.77 111.12 212.18 117.90 C 210.44 130.60 205.40 142.50 200.24 154.13 C 197.24 160.48 192.21 165.51 188.40 171.35 C 185.68 175.59 181.33 178.31 177.96 181.96 C 169.72 190.78 158.43 195.64 147.84 200.98 C 143.06 203.50 137.44 204.32 133.29 208.00 L 125.82 208.00 C 125.20 205.38 124.49 202.75 124.52 200.04 C 124.54 164.03 124.54 128.01 124.52 92.00 C 124.63 88.42 124.13 84.75 124.92 81.23 C 126.56 77.56 130.79 76.25 134.31 75.10 C 144.49 72.30 153.77 67.20 163.57 63.40 C 172.32 59.68 181.61 57.31 190.13 53.04 Z"
     id="path3011" />
  <path
     fill="#526705"
     d=" M 4.52 118.09 C 5.15 117.64 6.41 116.75 7.05 116.31 C 14.07 120.01 17.18 127.94 23.76 132.16 C 30.70 136.93 37.98 141.81 46.45 143.24 C 54.61 144.19 62.89 145.36 71.08 143.89 C 77.44 143.79 83.68 142.37 90.05 142.56 C 91.14 144.56 92.57 146.56 92.39 148.95 C 92.41 164.98 92.36 181.01 92.41 197.03 C 92.46 200.73 91.56 204.34 91.19 208.00 L 83.60 208.00 C 81.72 206.73 79.89 205.30 77.70 204.58 C 67.70 201.17 58.31 196.23 49.28 190.79 C 43.97 187.55 40.10 182.56 35.12 178.91 C 29.29 173.63 25.08 166.85 20.20 160.73 C 12.85 147.49 6.26 133.27 4.52 118.09 Z"
     id="path3013" />
</svg>
